<svg xmlns="http://www.w3.org/2000/svg" viewBox="0 0 820 600" width="820" height="600" font-family="ui-sans-serif,system-ui,sans-serif" font-size="11">
<style>:root{--ink:#1a1a1a;--mut:#6b6b6b;--grid:#e3e3e3;--tr:#b4472f;--ct:#2f6bb4;--bg:#fcfcfb}@media (prefers-color-scheme:dark){:root{--ink:#eaeaea;--mut:#9a9a9a;--grid:#333;--tr:#d47456;--ct:#4f8ee0;--bg:#1a1a19}}text{fill:var(--ink)}.mut{fill:var(--mut)}</style>
<rect width="820" height="600" fill="var(--bg)"/>
<text x="78" y="22" font-size="13" font-weight="600">H1a turns on one epoch: the exposure denominator counts idle time</text>
<text x="78" y="48" font-weight="600">(a) Session-hours per epoch (span = last − first event of each session, summed)</text>
<line x1="78" y1="280.0" x2="780" y2="280.0" stroke="var(--grid)"/>
<text x="70" y="284.0" text-anchor="end" class="mut">0</text>
<line x1="78" y1="227.5" x2="780" y2="227.5" stroke="var(--grid)"/>
<text x="70" y="231.5" text-anchor="end" class="mut">2</text>
<line x1="78" y1="175.0" x2="780" y2="175.0" stroke="var(--grid)"/>
<text x="70" y="179.0" text-anchor="end" class="mut">4</text>
<line x1="78" y1="122.5" x2="780" y2="122.5" stroke="var(--grid)"/>
<text x="70" y="126.5" text-anchor="end" class="mut">6</text>
<line x1="78" y1="70.0" x2="780" y2="70.0" stroke="var(--grid)"/>
<text x="70" y="74.0" text-anchor="end" class="mut">8</text>
<path d="M79.0,280 V269.7 Q79.0,265.7 83.0,265.7 H108.1 Q112.1,265.7 112.1,269.7 V280 Z" fill="var(--tr)"><title>2026-09-01 · treatment (w=4) · 0.54 h</title></path>
<text x="95.5" y="294" text-anchor="middle" class="mut" font-size="9">01</text>
<text x="95.5" y="306" text-anchor="middle" class="mut" font-size="8">w4</text>
<path d="M114.1,280 V270.7 Q114.1,266.7 118.1,266.7 H143.2 Q147.2,266.7 147.2,270.7 V280 Z" fill="var(--ct)"><title>2026-09-02 · control (w=0) · 0.51 h</title></path>
<text x="130.7" y="294" text-anchor="middle" class="mut" font-size="9">02</text>
<text x="130.7" y="306" text-anchor="middle" class="mut" font-size="8">ctl</text>
<path d="M149.2,280 V272.0 Q149.2,268.0 153.2,268.0 H178.3 Q182.3,268.0 182.3,272.0 V280 Z" fill="var(--ct)"><title>2026-09-03 · control (w=0) · 0.46 h</title></path>
<text x="165.8" y="294" text-anchor="middle" class="mut" font-size="9">03</text>
<text x="165.8" y="306" text-anchor="middle" class="mut" font-size="8">ctl</text>
<path d="M184.3,280 V272.6 Q184.3,268.6 188.3,268.6 H213.4 Q217.4,268.6 217.4,272.6 V280 Z" fill="var(--tr)"><title>2026-09-04 · treatment (w=2) · 0.43 h</title></path>
<text x="200.9" y="294" text-anchor="middle" class="mut" font-size="9">04</text>
<text x="200.9" y="306" text-anchor="middle" class="mut" font-size="8">w2</text>
<path d="M219.4,280 V275.0 Q219.4,271.0 223.4,271.0 H248.5 Q252.5,271.0 252.5,275.0 V280 Z" fill="var(--tr)"><title>2026-09-05 · treatment (w=2) · 0.34 h</title></path>
<text x="236.0" y="294" text-anchor="middle" class="mut" font-size="9">05</text>
<text x="236.0" y="306" text-anchor="middle" class="mut" font-size="8">w2</text>
<path d="M254.5,280 V272.1 Q254.5,268.1 258.5,268.1 H283.6 Q287.6,268.1 287.6,272.1 V280 Z" fill="var(--tr)"><title>2026-09-06 · treatment (w=7.5) · 0.45 h</title></path>
<text x="271.1" y="294" text-anchor="middle" class="mut" font-size="9">06</text>
<text x="271.1" y="306" text-anchor="middle" class="mut" font-size="8">w7.5</text>
<path d="M289.6,280 V264.2 Q289.6,260.2 293.6,260.2 H318.7 Q322.7,260.2 322.7,264.2 V280 Z" fill="var(--ct)"><title>2026-09-07 · control (w=0) · 0.75 h</title></path>
<text x="306.2" y="294" text-anchor="middle" class="mut" font-size="9">07</text>
<text x="306.2" y="306" text-anchor="middle" class="mut" font-size="8">ctl</text>
<path d="M324.7,280 V261.7 Q324.7,257.7 328.7,257.7 H353.8 Q357.8,257.7 357.8,261.7 V280 Z" fill="var(--tr)"><title>2026-09-08 · treatment (w=2) · 0.85 h</title></path>
<text x="341.3" y="294" text-anchor="middle" class="mut" font-size="9">08</text>
<text x="341.3" y="306" text-anchor="middle" class="mut" font-size="8">w2</text>
<path d="M359.8,280 V271.3 Q359.8,267.3 363.8,267.3 H388.9 Q392.9,267.3 392.9,271.3 V280 Z" fill="var(--tr)"><title>2026-09-09 · treatment (w=2) · 0.48 h</title></path>
<text x="376.4" y="294" text-anchor="middle" class="mut" font-size="9">09</text>
<text x="376.4" y="306" text-anchor="middle" class="mut" font-size="8">w2</text>
<path d="M394.9,280 V269.7 Q394.9,265.7 398.9,265.7 H424.0 Q428.0,265.7 428.0,269.7 V280 Z" fill="var(--ct)"><title>2026-09-10 · control (w=0) · 0.54 h</title></path>
<text x="411.5" y="294" text-anchor="middle" class="mut" font-size="9">10</text>
<text x="411.5" y="306" text-anchor="middle" class="mut" font-size="8">ctl</text>
<path d="M430.0,280 V269.9 Q430.0,265.9 434.0,265.9 H459.1 Q463.1,265.9 463.1,269.9 V280 Z" fill="var(--ct)"><title>2026-09-11 · control (w=0) · 0.54 h</title></path>
<text x="446.6" y="294" text-anchor="middle" class="mut" font-size="9">11</text>
<text x="446.6" y="306" text-anchor="middle" class="mut" font-size="8">ctl</text>
<path d="M465.1,280 V258.5 Q465.1,254.5 469.1,254.5 H494.2 Q498.2,254.5 498.2,258.5 V280 Z" fill="var(--tr)"><title>2026-09-12 · treatment (w=4) · 0.97 h</title></path>
<text x="481.7" y="294" text-anchor="middle" class="mut" font-size="9">12</text>
<text x="481.7" y="306" text-anchor="middle" class="mut" font-size="8">w4</text>
<path d="M500.2,280 V266.0 Q500.2,262.0 504.2,262.0 H529.3 Q533.3,262.0 533.3,266.0 V280 Z" fill="var(--ct)"><title>2026-09-13 · control (w=0) · 0.69 h</title></path>
<text x="516.8" y="294" text-anchor="middle" class="mut" font-size="9">13</text>
<text x="516.8" y="306" text-anchor="middle" class="mut" font-size="8">ctl</text>
<path d="M535.3,280 V96.8 Q535.3,92.8 539.3,92.8 H564.4 Q568.4,92.8 568.4,96.8 V280 Z" fill="var(--tr)"><title>2026-09-14 · treatment (w=4) · 7.13 h</title></path>
<text x="551.8" y="294" text-anchor="middle" class="mut" font-size="9">14</text>
<text x="551.8" y="306" text-anchor="middle" class="mut" font-size="8">w4</text>
<path d="M570.4,280 V272.2 Q570.4,268.2 574.4,268.2 H599.5 Q603.5,268.2 603.5,272.2 V280 Z" fill="var(--tr)"><title>2026-09-15 · treatment (w=4) · 0.45 h</title></path>
<text x="587.0" y="294" text-anchor="middle" class="mut" font-size="9">15</text>
<text x="587.0" y="306" text-anchor="middle" class="mut" font-size="8">w4</text>
<path d="M605.5,280 V265.1 Q605.5,261.1 609.5,261.1 H634.6 Q638.6,261.1 638.6,265.1 V280 Z" fill="var(--tr)"><title>2026-09-16 · treatment (w=2) · 0.72 h</title></path>
<text x="622.0" y="294" text-anchor="middle" class="mut" font-size="9">16</text>
<text x="622.0" y="306" text-anchor="middle" class="mut" font-size="8">w2</text>
<path d="M640.6,280 V270.4 Q640.6,266.4 644.6,266.4 H669.7 Q673.7,266.4 673.7,270.4 V280 Z" fill="var(--ct)"><title>2026-09-17 · control (w=0) · 0.52 h</title></path>
<text x="657.1" y="294" text-anchor="middle" class="mut" font-size="9">17</text>
<text x="657.1" y="306" text-anchor="middle" class="mut" font-size="8">ctl</text>
<path d="M675.7,280 V269.9 Q675.7,265.9 679.7,265.9 H704.8 Q708.8,265.9 708.8,269.9 V280 Z" fill="var(--ct)"><title>2026-09-18 · control (w=0) · 0.54 h</title></path>
<text x="692.2" y="294" text-anchor="middle" class="mut" font-size="9">18</text>
<text x="692.2" y="306" text-anchor="middle" class="mut" font-size="8">ctl</text>
<path d="M710.8,280 V275.6 Q710.8,271.6 714.8,271.6 H739.9 Q743.9,271.6 743.9,275.6 V280 Z" fill="var(--tr)"><title>2026-09-19 · treatment (w=2) · 0.32 h</title></path>
<text x="727.4" y="294" text-anchor="middle" class="mut" font-size="9">19</text>
<text x="727.4" y="306" text-anchor="middle" class="mut" font-size="8">w2</text>
<path d="M745.9,280 V267.6 Q745.9,263.6 749.9,263.6 H775.0 Q779.0,263.6 779.0,267.6 V280 Z" fill="var(--ct)"><title>2026-09-20 · control (w=0) · 0.62 h</title></path>
<text x="762.4" y="294" text-anchor="middle" class="mut" font-size="9">20</text>
<text x="762.4" y="306" text-anchor="middle" class="mut" font-size="8">ctl</text>
<text x="32" y="294" class="mut" font-size="9">Sep</text>
<text x="32" y="306" class="mut" font-size="8">arm</text>
<text x="18" y="175.0" class="mut" text-anchor="middle" transform="rotate(-90 18 175.0)">hours</text>
<line x1="537.8" y1="98.8" x2="491.8" y2="112.8" stroke="var(--mut)"/>
<text x="487.8" y="116.8" text-anchor="end" font-size="10">2026-09-14: 7.13 h = 56% of all treatment exposure</text>
<text x="487.8" y="129.8" text-anchor="end" font-size="10">one session with 3 episodes spans 6.33 h;</text>
<text x="487.8" y="142.8" text-anchor="end" font-size="10">the busiest sessions there: 74 / 65 / 56 episodes, each within 8.0–9.7 min</text>
<text x="487.8" y="155.8" text-anchor="end" font-size="10">other 19 epochs: 0.32–0.97 h</text>
<rect x="84" y="74" width="10" height="10" rx="2" fill="var(--tr)"/>
<text x="100" y="83" font-size="10">treatment · 12.70 h over 11 epochs</text>
<rect x="84" y="90" width="10" height="10" rx="2" fill="var(--ct)"/>
<text x="100" y="99" font-size="10">control · 5.16 h over 9 epochs</text>
<text x="78" y="334" font-weight="600">(b) H1a difference, treatment − control (opportunities per session-hour), 95% cluster-bootstrap interval</text>
<line x1="415.5" y1="358" x2="415.5" y2="514" stroke="var(--grid)"/>
<text x="415.5" y="530" text-anchor="middle" class="mut">−200</text>
<line x1="494.8" y1="358" x2="494.8" y2="514" stroke="var(--grid)"/>
<text x="494.8" y="530" text-anchor="middle" class="mut">−150</text>
<line x1="574.0" y1="358" x2="574.0" y2="514" stroke="var(--grid)"/>
<text x="574.0" y="530" text-anchor="middle" class="mut">−100</text>
<line x1="653.2" y1="358" x2="653.2" y2="514" stroke="var(--grid)"/>
<text x="653.2" y="530" text-anchor="middle" class="mut">−50</text>
<line x1="732.5" y1="358" x2="732.5" y2="514" stroke="var(--grid)"/>
<text x="732.5" y="530" text-anchor="middle" class="mut">0</text>
<line x1="732.5" y1="352" x2="732.5" y2="514" stroke="var(--ink)" stroke-width="1.5"/>
<text x="736.5" y="350" font-size="10" class="mut">zero</text>
<text x="78" y="375.0" font-size="10.5">locked · registered</text>
<text x="78" y="388.0" font-size="10" class="mut">all 20 epochs</text>
<text x="78" y="401.0" font-size="10" class="mut">−143.92 [−209.80; −15.34] · excludes zero</text>
<line x1="400.0" y1="384.0" x2="708.2" y2="384.0" stroke="var(--ink)" stroke-width="2"/>
<line x1="400.0" y1="379.0" x2="400.0" y2="389.0" stroke="var(--ink)" stroke-width="2"/>
<line x1="708.2" y1="379.0" x2="708.2" y2="389.0" stroke="var(--ink)" stroke-width="2"/>
<circle cx="504.4" cy="384.0" r="5" fill="var(--ink)" stroke="var(--ink)" stroke-width="2"/>
<text x="78" y="427.0" font-size="10.5">pre-committed sensitivity (spec §9.1) · registered</text>
<text x="78" y="440.0" font-size="10" class="mut">partials 09-01, 09-03, 09-20 removed</text>
<text x="78" y="453.0" font-size="10" class="mut">−133.34 [−203.62; +7.41] · contains zero</text>
<line x1="409.8" y1="436.0" x2="744.2" y2="436.0" stroke="var(--ink)" stroke-width="2"/>
<line x1="409.8" y1="431.0" x2="409.8" y2="441.0" stroke="var(--ink)" stroke-width="2"/>
<line x1="744.2" y1="431.0" x2="744.2" y2="441.0" stroke="var(--ink)" stroke-width="2"/>
<circle cx="521.2" cy="436.0" r="5" fill="var(--bg)" stroke="var(--ink)" stroke-width="2"/>
<text x="78" y="479.0" font-size="10.5">sensitivity · chosen after seeing the data</text>
<text x="78" y="492.0" font-size="10" class="mut">09-14 removed</text>
<text x="78" y="505.0" font-size="10" class="mut">−63.04 [−120.45; +1.76] · contains zero</text>
<line x1="541.6" y1="488.0" x2="735.2" y2="488.0" stroke="var(--ink)" stroke-width="2"/>
<line x1="541.6" y1="483.0" x2="541.6" y2="493.0" stroke="var(--ink)" stroke-width="2"/>
<line x1="735.2" y1="483.0" x2="735.2" y2="493.0" stroke="var(--ink)" stroke-width="2"/>
<circle cx="632.6" cy="488.0" r="5" fill="var(--bg)" stroke="var(--ink)" stroke-width="2"/>
<text x="78" y="554" class="mut" font-size="10">filled marker = interval excludes zero · hollow = contains zero · intervals under-cover (§4.1.1, §4.4.1)</text>
<text x="78" y="570" class="mut" font-size="10">registered re-randomization test (different estimand, §4.0.2): p = 0.0855, does not reject at 5%</text>
</svg>
