<svg xmlns="http://www.w3.org/2000/svg" viewBox="0 0 820 660" width="820" height="660" font-family="ui-sans-serif,system-ui,sans-serif" font-size="11">
<style>:root{--ink:#1a1a1a;--mut:#6b6b6b;--grid:#e3e3e3;--tr:#b4472f;--ct:#2f6bb4;--bg:#fcfcfb}@media (prefers-color-scheme:dark){:root{--ink:#eaeaea;--mut:#9a9a9a;--grid:#333;--tr:#d47456;--ct:#4f8ee0;--bg:#1a1a19}}text{fill:var(--ink)}.mut{fill:var(--mut)}</style>
<rect width="820" height="660" fill="var(--bg)"/>
<text x="78" y="22" font-size="13" font-weight="600">H1a: the intervals that exclude zero rest on one epoch of idle time, and the registered rule does not reject</text>
<text x="78" y="48" font-weight="600">(a) Session-hours per epoch under the registered window (span = last − first event of each session, summed)</text>
<line x1="78" y1="280.0" x2="780" y2="280.0" stroke="var(--grid)"/>
<text x="70" y="284.0" text-anchor="end" class="mut">0</text>
<line x1="78" y1="227.5" x2="780" y2="227.5" stroke="var(--grid)"/>
<text x="70" y="231.5" text-anchor="end" class="mut">2</text>
<line x1="78" y1="175.0" x2="780" y2="175.0" stroke="var(--grid)"/>
<text x="70" y="179.0" text-anchor="end" class="mut">4</text>
<line x1="78" y1="122.5" x2="780" y2="122.5" stroke="var(--grid)"/>
<text x="70" y="126.5" text-anchor="end" class="mut">6</text>
<line x1="78" y1="70.0" x2="780" y2="70.0" stroke="var(--grid)"/>
<text x="70" y="74.0" text-anchor="end" class="mut">8</text>
<path d="M79.0,280 V273.4 Q79.0,269.4 83.0,269.4 H109.9 Q113.9,269.4 113.9,273.4 V280 Z" fill="var(--tr)"><title>2026-09-01 · treatment (w=4) · 0.41 h</title></path>
<text x="96.5" y="294" text-anchor="middle" class="mut" font-size="9">01</text>
<text x="96.5" y="306" text-anchor="middle" class="mut" font-size="8">w4</text>
<path d="M115.9,280 V276.8 Q115.9,273.6 119.2,273.6 H147.7 Q150.9,273.6 150.9,276.8 V280 Z" fill="var(--ct)"><title>2026-09-03 · control (w=0) · 0.25 h</title></path>
<text x="133.4" y="294" text-anchor="middle" class="mut" font-size="9">03</text>
<text x="133.4" y="306" text-anchor="middle" class="mut" font-size="8">ctl</text>
<path d="M152.9,280 V272.6 Q152.9,268.6 156.9,268.6 H183.8 Q187.8,268.6 187.8,272.6 V280 Z" fill="var(--tr)"><title>2026-09-04 · treatment (w=2) · 0.43 h</title></path>
<text x="170.4" y="294" text-anchor="middle" class="mut" font-size="9">04</text>
<text x="170.4" y="306" text-anchor="middle" class="mut" font-size="8">w2</text>
<path d="M189.8,280 V275.0 Q189.8,271.0 193.8,271.0 H220.8 Q224.8,271.0 224.8,275.0 V280 Z" fill="var(--tr)"><title>2026-09-05 · treatment (w=2) · 0.34 h</title></path>
<text x="207.3" y="294" text-anchor="middle" class="mut" font-size="9">05</text>
<text x="207.3" y="306" text-anchor="middle" class="mut" font-size="8">w2</text>
<path d="M226.8,280 V272.1 Q226.8,268.1 230.8,268.1 H257.7 Q261.7,268.1 261.7,272.1 V280 Z" fill="var(--tr)"><title>2026-09-06 · treatment (w=7.5) · 0.45 h</title></path>
<text x="244.3" y="294" text-anchor="middle" class="mut" font-size="9">06</text>
<text x="244.3" y="306" text-anchor="middle" class="mut" font-size="8">w7.5</text>
<path d="M263.7,280 V264.2 Q263.7,260.2 267.7,260.2 H294.7 Q298.7,260.2 298.7,264.2 V280 Z" fill="var(--ct)"><title>2026-09-07 · control (w=0) · 0.75 h</title></path>
<text x="281.2" y="294" text-anchor="middle" class="mut" font-size="9">07</text>
<text x="281.2" y="306" text-anchor="middle" class="mut" font-size="8">ctl</text>
<path d="M300.7,280 V261.7 Q300.7,257.7 304.7,257.7 H331.6 Q335.6,257.7 335.6,261.7 V280 Z" fill="var(--tr)"><title>2026-09-08 · treatment (w=2) · 0.85 h</title></path>
<text x="318.2" y="294" text-anchor="middle" class="mut" font-size="9">08</text>
<text x="318.2" y="306" text-anchor="middle" class="mut" font-size="8">w2</text>
<path d="M337.6,280 V271.3 Q337.6,267.3 341.6,267.3 H368.6 Q372.6,267.3 372.6,271.3 V280 Z" fill="var(--tr)"><title>2026-09-09 · treatment (w=2) · 0.48 h</title></path>
<text x="355.1" y="294" text-anchor="middle" class="mut" font-size="9">09</text>
<text x="355.1" y="306" text-anchor="middle" class="mut" font-size="8">w2</text>
<path d="M374.6,280 V269.7 Q374.6,265.7 378.6,265.7 H405.5 Q409.5,265.7 409.5,269.7 V280 Z" fill="var(--ct)"><title>2026-09-10 · control (w=0) · 0.54 h</title></path>
<text x="392.1" y="294" text-anchor="middle" class="mut" font-size="9">10</text>
<text x="392.1" y="306" text-anchor="middle" class="mut" font-size="8">ctl</text>
<path d="M411.5,280 V269.9 Q411.5,265.9 415.5,265.9 H442.5 Q446.5,265.9 446.5,269.9 V280 Z" fill="var(--ct)"><title>2026-09-11 · control (w=0) · 0.54 h</title></path>
<text x="429.0" y="294" text-anchor="middle" class="mut" font-size="9">11</text>
<text x="429.0" y="306" text-anchor="middle" class="mut" font-size="8">ctl</text>
<path d="M448.5,280 V258.5 Q448.5,254.5 452.5,254.5 H479.4 Q483.4,254.5 483.4,258.5 V280 Z" fill="var(--tr)"><title>2026-09-12 · treatment (w=4) · 0.97 h</title></path>
<text x="465.9" y="294" text-anchor="middle" class="mut" font-size="9">12</text>
<text x="465.9" y="306" text-anchor="middle" class="mut" font-size="8">w4</text>
<path d="M485.4,280 V266.0 Q485.4,262.0 489.4,262.0 H516.4 Q520.4,262.0 520.4,266.0 V280 Z" fill="var(--ct)"><title>2026-09-13 · control (w=0) · 0.69 h</title></path>
<text x="502.9" y="294" text-anchor="middle" class="mut" font-size="9">13</text>
<text x="502.9" y="306" text-anchor="middle" class="mut" font-size="8">ctl</text>
<path d="M522.4,280 V96.8 Q522.4,92.8 526.4,92.8 H553.3 Q557.3,92.8 557.3,96.8 V280 Z" fill="var(--tr)"><title>2026-09-14 · treatment (w=4) · 7.13 h</title></path>
<text x="539.8" y="294" text-anchor="middle" class="mut" font-size="9">14</text>
<text x="539.8" y="306" text-anchor="middle" class="mut" font-size="8">w4</text>
<path d="M559.3,280 V272.2 Q559.3,268.2 563.3,268.2 H590.3 Q594.3,268.2 594.3,272.2 V280 Z" fill="var(--tr)"><title>2026-09-15 · treatment (w=4) · 0.45 h</title></path>
<text x="576.8" y="294" text-anchor="middle" class="mut" font-size="9">15</text>
<text x="576.8" y="306" text-anchor="middle" class="mut" font-size="8">w4</text>
<path d="M596.3,280 V265.1 Q596.3,261.1 600.3,261.1 H627.2 Q631.2,261.1 631.2,265.1 V280 Z" fill="var(--tr)"><title>2026-09-16 · treatment (w=2) · 0.72 h</title></path>
<text x="613.7" y="294" text-anchor="middle" class="mut" font-size="9">16</text>
<text x="613.7" y="306" text-anchor="middle" class="mut" font-size="8">w2</text>
<path d="M633.2,280 V270.4 Q633.2,266.4 637.2,266.4 H664.2 Q668.2,266.4 668.2,270.4 V280 Z" fill="var(--ct)"><title>2026-09-17 · control (w=0) · 0.52 h</title></path>
<text x="650.7" y="294" text-anchor="middle" class="mut" font-size="9">17</text>
<text x="650.7" y="306" text-anchor="middle" class="mut" font-size="8">ctl</text>
<path d="M670.2,280 V269.9 Q670.2,265.9 674.2,265.9 H701.1 Q705.1,265.9 705.1,269.9 V280 Z" fill="var(--ct)"><title>2026-09-18 · control (w=0) · 0.54 h</title></path>
<text x="687.6" y="294" text-anchor="middle" class="mut" font-size="9">18</text>
<text x="687.6" y="306" text-anchor="middle" class="mut" font-size="8">ctl</text>
<path d="M707.1,280 V275.6 Q707.1,271.6 711.1,271.6 H738.1 Q742.1,271.6 742.1,275.6 V280 Z" fill="var(--tr)"><title>2026-09-19 · treatment (w=2) · 0.32 h</title></path>
<text x="724.6" y="294" text-anchor="middle" class="mut" font-size="9">19</text>
<text x="724.6" y="306" text-anchor="middle" class="mut" font-size="8">w2</text>
<path d="M744.1,280 V270.5 Q744.1,266.5 748.1,266.5 H775.0 Q779.0,266.5 779.0,270.5 V280 Z" fill="var(--ct)"><title>2026-09-20 · control (w=0) · 0.52 h</title></path>
<text x="761.5" y="294" text-anchor="middle" class="mut" font-size="9">20</text>
<text x="761.5" y="306" text-anchor="middle" class="mut" font-size="8">ctl</text>
<text x="32" y="294" class="mut" font-size="9">Sep</text>
<text x="32" y="306" class="mut" font-size="8">arm</text>
<text x="18" y="175.0" class="mut" text-anchor="middle" transform="rotate(-90 18 175.0)">hours</text>
<line x1="525.8" y1="98.8" x2="479.8" y2="112.8" stroke="var(--mut)"/>
<text x="475.8" y="116.8" text-anchor="end" font-size="10">2026-09-14: 7.13 h = 57% of all treatment exposure</text>
<text x="475.8" y="129.8" text-anchor="end" font-size="10">one session with 3 episodes spans 6.33 h;</text>
<text x="475.8" y="142.8" text-anchor="end" font-size="10">the busiest sessions there: 74 / 65 / 56 episodes, each within 8.0–9.7 min</text>
<text x="475.8" y="155.8" text-anchor="end" font-size="10">other 18 epochs: 0.25–0.97 h; 09-02 excluded (served no brief)</text>
<rect x="84" y="74" width="10" height="10" rx="2" fill="var(--tr)"/>
<text x="100" y="83" font-size="10">treatment · 12.56 h over 11 epochs</text>
<rect x="84" y="90" width="10" height="10" rx="2" fill="var(--ct)"/>
<text x="100" y="99" font-size="10">control · 4.33 h over 8 epochs</text>
<text x="78" y="334" font-weight="600">(b) H1a difference, treatment − control (opportunities per session-hour), 95% cluster-bootstrap interval</text>
<line x1="378.0" y1="358" x2="378.0" y2="566" stroke="var(--grid)"/>
<text x="378.0" y="582" text-anchor="middle" class="mut">−300</text>
<line x1="438.9" y1="358" x2="438.9" y2="566" stroke="var(--grid)"/>
<text x="438.9" y="582" text-anchor="middle" class="mut">−250</text>
<line x1="499.8" y1="358" x2="499.8" y2="566" stroke="var(--grid)"/>
<text x="499.8" y="582" text-anchor="middle" class="mut">−200</text>
<line x1="560.7" y1="358" x2="560.7" y2="566" stroke="var(--grid)"/>
<text x="560.7" y="582" text-anchor="middle" class="mut">−150</text>
<line x1="621.6" y1="358" x2="621.6" y2="566" stroke="var(--grid)"/>
<text x="621.6" y="582" text-anchor="middle" class="mut">−100</text>
<line x1="682.5" y1="358" x2="682.5" y2="566" stroke="var(--grid)"/>
<text x="682.5" y="582" text-anchor="middle" class="mut">−50</text>
<line x1="743.5" y1="358" x2="743.5" y2="566" stroke="var(--grid)"/>
<text x="743.5" y="582" text-anchor="middle" class="mut">0</text>
<line x1="743.5" y1="352" x2="743.5" y2="566" stroke="var(--ink)" stroke-width="1.5"/>
<text x="747.5" y="350" font-size="10" class="mut">zero</text>
<text x="78" y="375.0" font-size="10.5">registered · locked</text>
<text x="78" y="388.0" font-size="10" class="mut">19 epochs (09-02 excluded), BCa</text>
<text x="78" y="401.0" font-size="10" class="mut">−163.52 [−282.29; −61.12] · excludes zero</text>
<line x1="399.6" y1="384.0" x2="669.0" y2="384.0" stroke="var(--ink)" stroke-width="2"/>
<line x1="399.6" y1="379.0" x2="399.6" y2="389.0" stroke="var(--ink)" stroke-width="2"/>
<line x1="669.0" y1="379.0" x2="669.0" y2="389.0" stroke="var(--ink)" stroke-width="2"/>
<circle cx="544.3" cy="384.0" r="5" fill="var(--ink)" stroke="var(--ink)" stroke-width="2"/>
<text x="78" y="427.0" font-size="10.5">registered · pre-committed sensitivity (spec §9.1)</text>
<text x="78" y="440.0" font-size="10" class="mut">partials 09-01, 09-03, 09-20 removed, BCa</text>
<text x="78" y="453.0" font-size="10" class="mut">−138.91 [−254.18; −28.82] · excludes zero</text>
<line x1="433.8" y1="436.0" x2="708.3" y2="436.0" stroke="var(--ink)" stroke-width="2"/>
<line x1="433.8" y1="431.0" x2="433.8" y2="441.0" stroke="var(--ink)" stroke-width="2"/>
<line x1="708.3" y1="431.0" x2="708.3" y2="441.0" stroke="var(--ink)" stroke-width="2"/>
<circle cx="574.2" cy="436.0" r="5" fill="var(--ink)" stroke="var(--ink)" stroke-width="2"/>
<text x="78" y="479.0" font-size="10.5">registered · post-hoc sensitivity</text>
<text x="78" y="492.0" font-size="10" class="mut">09-14 removed, chosen after seeing the data, BCa</text>
<text x="78" y="505.0" font-size="10" class="mut">−78.27 [−146.22; +1.95] · contains zero</text>
<line x1="565.3" y1="488.0" x2="745.8" y2="488.0" stroke="var(--ink)" stroke-width="2"/>
<line x1="565.3" y1="483.0" x2="565.3" y2="493.0" stroke="var(--ink)" stroke-width="2"/>
<line x1="745.8" y1="483.0" x2="745.8" y2="493.0" stroke="var(--ink)" stroke-width="2"/>
<circle cx="648.1" cy="488.0" r="5" fill="var(--bg)" stroke="var(--ink)" stroke-width="2"/>
<text x="78" y="531.0" font-size="10.5">rc7 analysis (sensitivity) · locked</text>
<text x="78" y="544.0" font-size="10" class="mut">20 epochs, percentile, no window cut</text>
<text x="78" y="557.0" font-size="10" class="mut">−143.92 [−209.80; −15.34] · excludes zero</text>
<line x1="487.9" y1="540.0" x2="724.8" y2="540.0" stroke="var(--ink)" stroke-width="2"/>
<line x1="487.9" y1="535.0" x2="487.9" y2="545.0" stroke="var(--ink)" stroke-width="2"/>
<line x1="724.8" y1="535.0" x2="724.8" y2="545.0" stroke="var(--ink)" stroke-width="2"/>
<circle cx="568.1" cy="540.0" r="5" fill="var(--ink)" stroke="var(--ink)" stroke-width="2"/>
<text x="78" y="606" class="mut" font-size="10">filled marker = interval excludes zero · hollow = contains zero · coverage of these intervals not established (§4.1.1, §4.1.2)</text>
<text x="78" y="622" class="mut" font-size="10">registered re-randomization test (different estimand, §4.0.2): unadjusted p = 0.0241;</text>
<text x="78" y="636" class="mut" font-size="10">Holm-adjusted 0.1205 (m = 5) / 0.0964 (m = 4): H1a is not rejected under the registered decision rule</text>
</svg>
